<?xml version="1.0" encoding="UTF-8" standalone="no"?>
<!-- Created with Inkscape (http://www.inkscape.org/) -->

<svg
   width="18.579662mm"
   height="18.579662mm"
   viewBox="0 0 18.579662 18.579662"
   version="1.1"
   id="svg1"
   inkscape:export-filename="abacus.png"
   inkscape:export-xdpi="32.81007"
   inkscape:export-ydpi="32.81007"
   inkscape:version="1.3.2 (091e20e, 2023-11-25, custom)"
   sodipodi:docname="abacus2.svg"
   xmlns:inkscape="http://www.inkscape.org/namespaces/inkscape"
   xmlns:sodipodi="http://sodipodi.sourceforge.net/DTD/sodipodi-0.dtd"
   xmlns="http://www.w3.org/2000/svg"
   xmlns:svg="http://www.w3.org/2000/svg">
  <sodipodi:namedview
     id="namedview1"
     pagecolor="#ffffff"
     bordercolor="#000000"
     borderopacity="0"
     inkscape:showpageshadow="2"
     inkscape:pageopacity="0.0"
     inkscape:pagecheckerboard="0"
     inkscape:deskcolor="#d1d1d1"
     inkscape:document-units="pt"
     inkscape:zoom="2.0686841"
     inkscape:cx="-31.90434"
     inkscape:cy="140.42743"
     inkscape:window-width="1920"
     inkscape:window-height="1017"
     inkscape:window-x="1912"
     inkscape:window-y="-8"
     inkscape:window-maximized="1"
     inkscape:current-layer="layer1" />
  <defs
     id="defs1" />
  <g
     inkscape:label="Capa 1"
     inkscape:groupmode="layer"
     id="layer1"
     transform="translate(-86.707676,-73.35704)">
    <g
       id="g3"
       transform="matrix(0.13229166,0,0,0.13229166,89.134216,75.78358)"
       style="display:inline">
      <g
         id="g2">
        <path
           id="rect1"
           style="display:inline;fill:#ff3228"
           class="st0"
           inkscape:label="rect1"
           d="m 0,0 c 24.456467,-24.456467 79.303533,-24.456467 103.76,0 24.45647,24.456467 24.45647,79.303533 0,103.76 C 79.303533,128.21647 24.456467,128.21647 0,103.76 -24.456467,79.303533 -24.456467,24.456467 0,0 Z"
           sodipodi:nodetypes="aaaaa" />
      </g>
      <path
         class="st1"
         d="m 82.51,55.35 c -1.48,6.81 -6.86,8.73 -9.14,9.25 -0.96,0.22 -1.93,0.33 -2.9,0.33 -3.13,0 -6.09,-1.18 -8.16,-3.23 L 88.13,46.78 c -1.21,-3.1 -2.83,-6.1 -5.36,-8.45 -4.49,-4.16 -11.02,-6.06 -17.03,-4.64 -3.13,0.74 -6.08,2.34 -8.49,4.46 -2.07,1.82 -3.78,4.06 -4.93,6.57 -0.21,0.46 -0.41,0.94 -0.58,1.42 -0.26,0.72 -0.47,1.46 -0.63,2.22 V 34.79 h -8.06 v 19.95 c 0,5.88 -4.23,10.32 -9.84,10.32 -5.65,0 -9.91,-4.44 -9.91,-10.32 V 34.79 h -8.06 v 19.95 c 0,10.49 7.56,18.11 17.97,18.11 9.88,0 17.16,-6.91 17.83,-16.63 0.59,3.19 1.89,6.32 3.87,9 3.52,4.78 9.34,7.63 15.57,7.63 1.55,0 3.12,-0.18 4.65,-0.52 7.75,-1.75 13.53,-7.67 15.16,-15.48 z M 58.86,55.02 c -0.45,-2.22 -0.34,-4.35 0.32,-6.18 0.98,-2.69 3.05,-4.93 5.54,-6.31 4.25,-2.36 9.92,-1.82 13.16,2.06 L 58.96,55.52 Z"
         id="path1"
         style="display:inline;fill:#ffffff" />
    </g>
  </g>
</svg>
